<svg id="_レイヤー_2" data-name="レイヤー 2" xmlns="http://www.w3.org/2000/svg" viewBox="0 0 360 129.15"><defs><style>.cls-1{fill:#222;fill-rule:evenodd}</style></defs><g id="_レイヤー_1-2" data-name="レイヤー 1"><path class="cls-1" d="M95.5 46.82c-3.24 1.5-2.36 3.14-3.96 7.4-1.62 4.26-9.51 10.17-21.75 13.58-12.23 3.42-21.66.98-27.58-7.81-5.91-8.68-2.12-21.8 1.55-29.32 3.61-7.49 10.32-11.29 16.05-13.87 5.74-2.56 9.98-2.56 15.07-2.74.57 2.95 6.2 7.58 10.09 9.76 3.89 2.2 4.85.17 6.89-3.39 2.04-3.64 3.18-5.24 3.08-7.14-.09-1.9-6.3-2.75-10.76-4.28-4.45-1.5-6.38-5.32-6.97-7.49-.58-2.18-2.74-2.18-3.56 1.03-.81 3.22-.64 3.42-.16 8.18-17.57-.08-36.78 9.97-43.36 26.01-6.75 16.61-6.07 29.2-.9 37.51 5.18 8.4 18.71 10.91 28.41 8.46 9.69-2.47 17.8-9 21.27-11.66 3.48-2.69 6.04-6.11 10.59-9-1.28 4.17-3.87 10.41-10.67 22.66-8.09 14.54-17.92 23.77-29.26 28.49-11.43 4.79-21.45.86-27.6-3.61-6.15-4.46-7.15-10.74-6.89-14.65.29-3.88 2.51-6.91 4.22-9.33 1.67-2.53-.08-3.64-2.08-1.86-2.02 1.86-4.79 4.57-9.66 10.46-8.8 10.64-9.27 18.81-4.74 26.11 4.52 7.34 18.51 9.99 29.03 8.38 10.53-1.6 20.39-5.69 32.67-15.49 12.3-9.76 18.61-19.09 28.07-34.22 9.47-15.1 10.55-24.43 11.43-29.81.87-5.27-5.32-3.87-8.52-2.35zm257.96 21.4c-1.97-1.47-1.55-2.27-1.55-2.27s1.76-2.15 2.7-3.45c1.02-1.33 1.09-4.18-1.84-4.18s-7.11 4.54-10.31 7.4c-3.27 2.83-1.32 4.83-1.32 4.83s-19.32 18.64-30.1 17.78c-10.76-.88-10.59-3.81-11.33-7.68 19.17-2.18 20.72-9.87 21.18-13.43.52-3.52-2.89-8.26-9.86-5.04-6.92 3.25-10.17 7.33-15.46 12.56-5.24 5.22-12.04 11.99-17.67 15.56-5.69 3.61-4.95-3.42-4.95-9.09s-.23-12.67-1.77-14.63c-1.57-1.98-5.57.39-11.51 6.61-5.94 6.29-9.94 11.43-11.96 11.79-2.03.41-4.53-2.55-4.7-8.22-.17-5.7 7.83-14.08 12.39-18.74 4.53-4.66 8.97-10.72 12.07-17.66 3.02-6.91 4.4-11.59 4.32-16.15-.04-4.53-2.63-3.33-4.32-2.07-1.71 1.2-4.54 6.9-11.01 18.14-6.49 11.2-13.34 24.76-14.5 26.77-1.11 2.01-10.59 10.47-18.52 16.34-7.93 5.9-11.54 4.66-14.8 3.71-3.22-.97-4.84-2.38-5.06-8.11-.28-5.66 5.06-8.98 8.64-10.2 3.55-1.27 7.35.93 9.11 1.04 1.78.04 2.44-1.27 2.71-2.46.19-1.26 0-4.31-2.94-4.21-2.94.11-9.49 1.74-15.87 5.7-6.34 4.01-13.25 10.09-19.06 14.25-5.83 4.18-9.28 4.87-13.03 4.36-3.72-.44-4.62-4.36-4.46-8.03.17-3.73 6.73-11.61 8.1-13.13 1.34-1.5 1.23-2.73.58-3.68-.68-.95-3.12-.11-4.14 1.02-1.07 1.16-4.38 6.24-6.72 8.38-2.34 2.09-13.35 11.17-17.55 13.62-4.21 2.33-5.75 1.78-8.08-1.65-2.35-3.45.62-8.38 2.91-11.72 2.24-3.33 2.34-4.04 2.12-5.28-.25-1.25-2.93-1.63-4.09 0-1.12 1.57-6.22 9.09-12.2 14.7-5.99 5.6-7.62 6.82-11.48 5.21-3.86-1.57-4.28-4.55-3.66-7.57.67-3.03 6.18-10.25 7.21-11.87 1.08-1.64.97-2.55 0-3.89-.94-1.37-2.02-1.17-3.62.34-1.59 1.54-8.31 10.62-10.97 14.1-1.71 2.13-1.05 11.64.24 13.57 2.75 4.06 6.25 5.5 9.93 4.28 3.61-1.25 9.23-6.94 13.87-11.79.07 1.91 1.35 6.86 3.93 10.18 2.59 3.32 5.64 1.21 10.03-1.61 4.38-2.86 11.52-8.45 16.28-12.65-.94 3.51-1.92 11.71 2.45 15.39 4.39 3.71 12.56-.59 14.93-2.48 2.34-1.87 10.58-8.62 16.24-13.38-.98 3.34-.6 9.41 1.2 12.63 1.82 3.24 8.7 7.14 17.19 3.45 8.46-3.71 15.74-11.16 18.39-14.35 2.71-3.22 3.89-4.29 4.54-4.2-2.4 6.16-1.36 14.75-.14 17.5 1.16 2.75 3.72 2.18 6.13.67 2.43-1.55 14.54-14.94 16.75-17.4 2.14-2.5 3.56-4.6 4.43-2 .89 2.55.09 9.52.83 17.08.72 7.61 4.05 7.89 8.41 5.62 4.36-2.28 9.92-6.94 19.82-17.19-1.49 9.78 3.8 14.71 12.43 15.96 8.65 1.23 14.94-5.9 20.05-9.81 5.11-3.86 18.27-14.99 18.27-14.99s3.75 2.58 6.3 4.77c2.45 2.18 3.28 4.24 2.32 8.83-1 4.53-3.6 6.62-5.64 7.05-2.14.36-2.8-2.31-3.75-4.41-.95-2.08-.8-3.99-4.88-3.91-3.43.08-4.9 4.28-4.03 8.38.93 4.08 6.97 6.08 14.27 2.77 7.27-3.33 11.2-12.56 12.04-17.25.8-4.61-4.55-9.1-6.46-10.49zm-49.77 2.84c2.92-4.19 6.13-5.05 8.49-3.92 2.39 1.16.4 5.5.4 5.5-2.36 3.64-8.9 5.84-13.02 5.54.65-1.9 1.2-2.95 4.12-7.12z"/><path class="cls-1" d="M188.69 54.4c7.37-3 14.67-11.25 16.24-13.27 1.54-2 1.12-1.61.24-1.44-.91.19-4.35 1.14-11.62 3.13-7.31 2-7.78.5-9.93-1.82-2.06-2.26-2.8-2.74-5.85.22-3.09 2.97-2.11 5.16-1.63 8.52.89 6.1 5.16 7.71 12.54 4.66z"/></g></svg>